HIERARCHY
ROOT Hips
{
  OFFSET 53.2057 95.6472 9.94019
  CHANNELS 6 Xposition Yposition Zposition Zrotation Xrotation Yrotation
  JOINT spine
  {
    OFFSET 0 7.96568 0.458067
    CHANNELS 3 Zrotation Xrotation Yrotation
    JOINT spine1
    {
      OFFSET 0 10.2431 0
      CHANNELS 3 Zrotation Xrotation Yrotation
      JOINT spine2
      {
        OFFSET 0 9.81475 0
        CHANNELS 3 Zrotation Xrotation Yrotation
        JOINT Neck
        {
          OFFSET 0 25.1986 1.20138
          CHANNELS 3 Zrotation Xrotation Yrotation
          JOINT Head
          {
            OFFSET 0 7.61315 0
            CHANNELS 3 Zrotation Xrotation Yrotation
            End Site
            {
              OFFSET 0 18.4281 -6.07733
            }
          }
        }
        JOINT RightShoulder
        {
          OFFSET -4.1327 10.5992 -0.575451
          CHANNELS 3 Zrotation Xrotation Yrotation
          JOINT RightArm
          {
            OFFSET 0 13.9018 0
            CHANNELS 3 Zrotation Xrotation Yrotation
            JOINT RightArmRoll
            {
              OFFSET 0 7.01789 0
              CHANNELS 3 Zrotation Xrotation Yrotation
              JOINT RightForeArm
              {
                OFFSET 0 20.4406 0
                CHANNELS 3 Zrotation Xrotation Yrotation
                JOINT RightForeArmRoll
                {
                  OFFSET 0 7.87516 0
                  CHANNELS 3 Zrotation Xrotation Yrotation
                  JOINT RightHand
                  {
                    OFFSET 0 15.8037 0
                    CHANNELS 3 Zrotation Xrotation Yrotation
                    End Site
                    {
                      OFFSET 0 0 0
                    }
                  }
                }
              }
            }
          }
        }
        JOINT LeftShoulder
        {
          OFFSET 4.1327 10.5992 -0.575451
          CHANNELS 3 Zrotation Xrotation Yrotation
          JOINT LeftArm
          {
            OFFSET 0 13.9018 0
            CHANNELS 3 Zrotation Xrotation Yrotation
            JOINT LeftArmRoll
            {
              OFFSET 0 7.01789 0
              CHANNELS 3 Zrotation Xrotation Yrotation
              JOINT LeftForeArm
              {
                OFFSET 0 20.4406 0
                CHANNELS 3 Zrotation Xrotation Yrotation
                JOINT LeftForeArmRoll
                {
                  OFFSET 0 7.87516 0
                  CHANNELS 3 Zrotation Xrotation Yrotation
                  JOINT LeftHand
                  {
                    OFFSET 0 15.8037 0
                    CHANNELS 3 Zrotation Xrotation Yrotation
                    End Site
                    {
                      OFFSET 0 0 0
                    }
                  }
                }
              }
            }
          }
        }
      }
    }
  }
  JOINT RightUpLeg
  {
    OFFSET -7.06048 -1.2947 -1.0861
    CHANNELS 3 Zrotation Xrotation Yrotation
    JOINT RightUpLegRoll
    {
      OFFSET 0 18.5308 0
      CHANNELS 3 Zrotation Xrotation Yrotation
      JOINT RightLeg
      {
        OFFSET 0 -22.9476 0
        CHANNELS 3 Zrotation Xrotation Yrotation
        JOINT RightLegRoll
        {
          OFFSET 0 23.0226 0
          CHANNELS 3 Zrotation Xrotation Yrotation
          JOINT RightFoot
          {
            OFFSET 0 19.1625 0
            CHANNELS 3 Zrotation Xrotation Yrotation
            JOINT RightToeBase
            {
              OFFSET 0 16.0188 0
              CHANNELS 3 Zrotation Xrotation Yrotation
              End Site
              {
                OFFSET 0.00678979 7.75782 -0.894207
              }
            }
          }
        }
      }
    }
  }
  JOINT LeftUpLeg
  {
    OFFSET 7.06048 -1.2947 -1.0861
    CHANNELS 3 Zrotation Xrotation Yrotation
    JOINT LeftUpLegRoll
    {
      OFFSET 0 18.5309 0
      CHANNELS 3 Zrotation Xrotation Yrotation
      JOINT LeftLeg
      {
        OFFSET 0 22.9475 0
        CHANNELS 3 Zrotation Xrotation Yrotation
        JOINT LeftLegRoll
        {
          OFFSET 0 23.2355 0
          CHANNELS 3 Zrotation Xrotation Yrotation
          JOINT LeftFoot
          {
            OFFSET 0 18.9496 0
            CHANNELS 3 Zrotation Xrotation Yrotation
            JOINT LeftToeBase
            {
              OFFSET 0 16.0188 0
              CHANNELS 3 Zrotation Xrotation Yrotation
              End Site
              {
                OFFSET -0.0304289 7.75782 -0.894206
              }
            }
          }
        }
      }
    }
  }
}
MOTION
Frames: 5
Frame Time: 0.00208333
53.1259 95.6701 7.47931 0.00935316 -1.15065 0.645293 0.130286 -2.27158 0.0573085 0.251491 -0.540256 0.091105 0.250579 1.10481 0.0868887 -3.87354 22.8432 0.814371 3.45912 -1.98324 -0.122818 71.0703 4.23908 0.559253 105.064 16.0559 24.1105 -1.19271e-014 3.18055e-015 -3.18055e-015 0.417066 -0.00307497 0.039066 -1.86295e-006 -5.68454e-007 -3.03018 8.03019 -4.95139 0.697637 -78.1163 0.500281 2.00807 -97.2478 19.9402 -31.737 1.11319e-014 6.36111e-015 -6.36111e-015 8.50028 -0.041352 -1.04836 1.79459e-005 4.33241e-006 3.007 -8.03067 -4.95137 -0.697619 174.31 -0.197462 -1.57042 -180 7.01526e-015 178.835 178.004 5.8573 179.542 -2.91286e-007 -5.91034e-006 0.0880871 -19.2337 68.4432 19.9034 8.13649 25.2326 -3.48773 -173.642 1.41001 0.291262 4.5067e-006 -1.99009e-005 -1.1173 -1.94241 -5.86494 0.135358 -4.18653e-007 -4.00229e-006 -0.000533251 17.7337 67.6823 -19.266 -8.13649 25.2327 3.48774 
53.1141 95.6719 7.49277 0.00664577 -1.18135 0.631957 0.130551 -2.2651 0.0585507 0.251468 -0.527284 0.0944064 0.250508 1.11778 0.090193 -3.86334 22.8429 0.814059 3.45063 -1.98525 -0.120553 71.0988 4.23629 0.553485 105.011 16.0631 24.2258 7.15625e-015 -6.36111e-015 -0 0.321603 -0.00320947 0.0458592 -1.86295e-006 -5.68454e-007 -3.03019 8.03019 -4.95139 0.697637 -78.0832 0.486835 2.00994 -97.299 19.879 -31.6362 4.77083e-015 0 -3.18055e-015 8.38156 -0.0348011 -1.03983 1.79459e-005 4.33241e-006 3.007 -8.03067 -4.95137 -0.697619 174.309 -0.224824 -1.5613 -180 7.01526e-015 178.835 177.997 5.86792 179.542 -2.91286e-007 -5.91034e-006 0.0883164 -19.2315 68.4407 19.901 8.13649 25.2326 -3.48773 -173.638 1.36853 0.286819 4.5067e-006 -1.99009e-005 -1.11747 -1.94226 -5.86204 0.135463 -4.18653e-007 -4.00229e-006 -0.000530723 17.7344 67.6839 -19.2679 -8.13649 25.2327 3.48774 
53.1173 95.6727 7.49478 0.00392562 -1.21252 0.618935 0.130765 -2.25857 0.0597982 0.251281 -0.514218 0.0977531 0.250272 1.13085 0.0935455 -3.8506 22.8439 0.812835 3.44049 -1.98833 -0.118525 71.1285 4.2332 0.547388 104.958 16.0716 24.3392 -2.46493e-014 9.54166e-015 -9.54166e-015 0.227379 -0.00331512 0.052427 -1.86295e-006 -5.68454e-007 -3.03022 8.03019 -4.95139 0.697637 -78.0491 0.47402 2.01144 -97.3516 19.8188 -31.5385 -9.54166e-015 -6.36111e-015 -6.36111e-015 8.26753 -0.0319574 -1.03154 1.79459e-005 4.33241e-006 3.007 -8.03067 -4.95137 -0.697619 174.309 -0.252423 -1.55152 -180 7.01526e-015 178.835 177.99 5.87933 179.542 -2.91286e-007 -5.91034e-006 0.0885658 -19.2292 68.4382 19.8986 8.13649 25.2326 -3.48773 -173.634 1.32667 0.28241 4.5067e-006 -1.99009e-005 -1.11762 -1.94201 -5.85925 0.135591 -4.18653e-007 -4.00229e-006 -0.000526963 17.735 67.6856 -19.2699 -8.13649 25.2327 3.48774 
53.121 95.6696 7.47963 0.00119243 -1.24401 0.606133 0.130942 -2.252 0.0610494 0.250978 -0.501085 0.101132 0.24992 1.14398 0.0969318 -3.83608 22.8458 0.810974 3.4292 -1.99217 -0.116663 71.159 4.22988 0.54106 104.905 16.0809 24.4511 1.03368e-014 0 -0 0.134023 -0.00340058 0.058837 -1.86295e-006 -5.68454e-007 -3.03025 8.03019 -4.95139 0.697637 -78.0142 0.461648 2.01268 -97.4052 19.7592 -31.4429 9.54166e-015 3.18055e-015 3.18055e-015 8.15678 -0.0317088 -1.02341 1.79459e-005 4.33241e-006 3.007 -8.03067 -4.95137 -0.697619 174.308 -0.280187 -1.54127 -180 7.01526e-015 178.834 177.982 5.89125 179.542 -2.91286e-007 -5.91034e-006 0.0888292 -19.227 68.4356 19.8961 8.13649 25.2326 -3.48773 -173.63 1.28454 0.278026 4.5067e-006 -1.99009e-005 -1.11774 -1.94169 -5.85656 0.135736 -4.18653e-007 -4.00229e-006 -0.000522339 17.7354 67.6872 -19.272 -8.13649 25.2327 3.48774 
53.1193 95.6692 7.48837 -0.00155416 -1.27568 0.593455 0.131099 -2.24542 0.0623028 0.250608 -0.487915 0.104528 0.2495 1.15715 0.100337 -3.82054 22.8482 0.808747 3.41725 -1.99644 -0.114896 71.19 4.22644 0.534601 104.852 16.0907 24.5623 -9.54166e-015 6.36111e-015 -0 0.0411627 -0.00347448 0.0651568 -1.86295e-006 -5.68454e-007 -3.03028 8.03019 -4.95139 0.697637 -77.9788 0.449529 2.01376 -97.4594 19.6998 -31.3486 -3.18055e-015 -3.18055e-015 -3.18055e-015 8.0479 -0.0329432 -1.01537 1.79459e-005 4.33241e-006 3.007 -8.03067 -4.95137 -0.697619 174.308 -0.308045 -1.53076 -180 7.01526e-015 178.834 177.974 5.90348 179.542 -2.91286e-007 -5.91034e-006 0.0891005 -19.2247 68.433 19.8937 8.13649 25.2326 -3.48773 -173.625 1.24227 0.273656 4.5067e-006 -1.99009e-005 -1.11785 -1.94134 -5.85391 0.13589 -4.18653e-007 -4.00229e-006 -0.000517222 17.7358 67.6889 -19.2741 -8.13649 25.2327 3.48774 
